<?xml version="1.0" encoding="UTF-8" standalone="no"?>
<svg
   xmlns:dc="http://purl.org/dc/elements/1.1/"
   xmlns:cc="http://creativecommons.org/ns#"
   xmlns:rdf="http://www.w3.org/1999/02/22-rdf-syntax-ns#"
   xmlns:svg="http://www.w3.org/2000/svg"
   xmlns="http://www.w3.org/2000/svg"
   xmlns:sodipodi="http://sodipodi.sourceforge.net/DTD/sodipodi-0.dtd"
   xmlns:inkscape="http://www.inkscape.org/namespaces/inkscape"
   inkscape:version="1.0 (4035a4fb49, 2020-05-01)"
   inkscape:export-ydpi="291"
   inkscape:export-xdpi="291"
   inkscape:export-filename="/home/shitiomatic/OSS-Family/Siapbantu/rumahbaru/public/favicon-96x96.png"
   sodipodi:docname="logo.svg"
   id="svg106"
   version="1.1"
   viewBox="0 0 48 48"
   height="48"
   width="48">
  <metadata
     id="metadata112">
    <rdf:RDF>
      <cc:Work
         rdf:about="">
        <dc:format>image/svg+xml</dc:format>
        <dc:type
           rdf:resource="http://purl.org/dc/dcmitype/StillImage" />
        <dc:title></dc:title>
      </cc:Work>
    </rdf:RDF>
  </metadata>
  <defs
     id="defs110" />
  <sodipodi:namedview
     inkscape:current-layer="layer1"
     inkscape:window-maximized="1"
     inkscape:window-y="0"
     inkscape:window-x="1366"
     inkscape:cy="125.93518"
     inkscape:cx="77.65833"
     inkscape:zoom="2.0145178"
     showgrid="false"
     id="namedview108"
     inkscape:window-height="744"
     inkscape:window-width="1366"
     inkscape:pageshadow="2"
     inkscape:pageopacity="0"
     guidetolerance="10"
     gridtolerance="10"
     objecttolerance="10"
     borderopacity="1"
     bordercolor="#666666"
     pagecolor="#ffffff" />
  <g
     style="display:inline"
     inkscape:label="Layer 1"
     id="layer1"
     inkscape:groupmode="layer">
    <path
       fill="none"
       d="M 0,0 H 48 V 48 H 0 Z"
       id="path88-3"
       style="stroke-width:2" />
    <path
       d="M 28.8,13.2 C 29.472,13.2 30,12.672 30,12.000001 30,11.328 29.472,10.8 28.8,10.8 c -0.672,0 -1.2,0.528 -1.2,1.200001 C 27.6,12.672 28.128,13.2 28.8,13.2 Z"
       id="path90-6"
       style="fill:#5850ec;fill-opacity:1;stroke-width:2.4" />
    <circle
       r="2.4000001"
       cx="28.799999"
       cy="19.199999"
       id="circle92-7"
       style="fill:#5850ec;fill-opacity:1;stroke-width:2.4" />
    <circle
       r="2.4000001"
       cx="28.799999"
       cy="28.799999"
       id="circle94-5"
       style="fill:#5850ec;fill-opacity:1;stroke-width:2.4" />
    <path
       d="M 19.200001,34.8 C 18.528,34.8 18,35.328 18,36 c 0,0.672 0.528,1.2 1.200001,1.2 C 19.872,37.2 20.4,36.672 20.4,36 c 0,-0.672 -0.528,-1.2 -1.199999,-1.2 z"
       id="path96-3"
       style="fill:#5850ec;fill-opacity:1;stroke-width:2.4" />
    <circle
       r="2.4000001"
       cx="19.199999"
       cy="19.199999"
       id="circle98-5"
       style="fill:#5850ec;fill-opacity:1;stroke-width:2.4" />
    <path
       d="M 12.000001,27.6 C 11.328,27.6 10.8,28.128 10.8,28.8 10.8,29.472 11.328,30 12.000001,30 12.672,30 13.2,29.472 13.2,28.8 c 0,-0.672 -0.528,-1.2 -1.199999,-1.2 z M 24,0 C 10.752,0 0,10.752 0,24 0,37.248 10.752,48 24,48 37.248,48 48,37.248 48,24 48,10.752 37.248,0 24,0 Z m 0,43.2 C 13.392,43.2 4.8000005,34.608 4.8000005,24 4.8000005,13.392 13.392,4.8000005 24,4.8000005 34.608,4.8000005 43.2,13.392 43.2,24 43.2,34.608 34.608,43.2 24,43.2 Z M 12.000001,18 C 11.328,18 10.8,18.528 10.8,19.200001 10.8,19.872 11.328,20.4 12.000001,20.4 12.672,20.4 13.2,19.872 13.2,19.200001 13.2,18.528 12.672,18 12.000001,18 Z"
       id="path100-6"
       style="fill:#5850ec;fill-opacity:1;stroke-width:2.4" />
    <circle
       r="2.4000001"
       cx="19.199999"
       cy="28.799999"
       id="circle102-2"
       style="fill:#5850ec;fill-opacity:1;stroke-width:2.4" />
    <path
       d="M 19.200001,13.2 C 19.872,13.2 20.4,12.672 20.4,12.000001 20.4,11.328 19.872,10.8 19.200001,10.8 18.528,10.8 18,11.328 18,12.000001 18,12.672 18.528,13.2 19.200001,13.2 Z M 28.8,34.8 c -0.672,0 -1.2,0.528 -1.2,1.2 0,0.672 0.528,1.2 1.2,1.2 0.672,0 1.2,-0.528 1.2,-1.2 0,-0.672 -0.528,-1.2 -1.2,-1.2 z M 36,18 c -0.672,0 -1.2,0.528 -1.2,1.200001 C 34.8,19.872 35.328,20.4 36,20.4 c 0.672,0 1.2,-0.528 1.2,-1.2 C 37.2,18.528 36.672,18 36,18 Z m 0,9.6 c -0.672,0 -1.2,0.528 -1.2,1.2 0,0.672 0.528,1.2 1.2,1.2 0.672,0 1.2,-0.528 1.2,-1.2 0,-0.672 -0.528,-1.2 -1.2,-1.2 z"
       id="path104-9"
       style="fill:#5850ec;fill-opacity:1;stroke-width:2.4" />
  </g>
</svg>
