<?xml version="1.0" standalone="no"?>
<!DOCTYPE svg PUBLIC "-//W3C//DTD SVG 20010904//EN"
 "http://www.w3.org/TR/2001/REC-SVG-20010904/DTD/svg10.dtd">
<svg version="1.0" xmlns="http://www.w3.org/2000/svg"
 width="3031.000000pt" height="3031.000000pt" viewBox="0 0 3031.000000 3031.000000"
 preserveAspectRatio="xMidYMid meet">
<metadata>
Created by potrace 1.11, written by Peter Selinger 2001-2013
</metadata>
<g transform="translate(0.000000,3031.000000) scale(0.100000,-0.100000)"
fill="#000000" stroke="none">
<path d="M14698 30305 c-2 -2 -82 -6 -178 -9 -96 -4 -200 -9 -230 -11 -30 -2
-107 -6 -170 -10 -63 -3 -128 -8 -145 -10 -16 -2 -64 -6 -105 -10 -86 -6 -177
-14 -235 -20 -22 -3 -62 -7 -90 -10 -72 -8 -134 -15 -180 -20 -22 -3 -58 -8
-80 -10 -73 -9 -209 -26 -240 -30 -112 -17 -233 -35 -250 -39 -11 -2 -41 -6
-66 -10 -42 -6 -62 -9 -129 -21 -14 -3 -68 -12 -120 -21 -52 -9 -104 -18 -115
-20 -33 -7 -118 -24 -145 -29 -117 -21 -557 -117 -590 -129 -8 -3 -26 -8 -40
-10 -129 -25 -616 -158 -905 -247 -243 -76 -734 -242 -790 -269 -11 -5 -51
-20 -90 -34 -116 -41 -516 -202 -660 -266 -22 -10 -74 -32 -115 -50 -349 -152
-1081 -520 -1315 -662 -16 -10 -37 -21 -45 -25 -33 -15 -453 -266 -550 -328
-19 -13 -69 -44 -110 -70 -158 -100 -442 -293 -618 -419 -101 -72 -193 -138
-206 -146 -48 -33 -455 -346 -521 -401 -11 -9 -87 -73 -170 -141 -229 -190
-442 -376 -606 -528 -310 -289 -662 -641 -879 -879 -47 -52 -92 -101 -101
-110 -45 -45 -352 -402 -466 -541 -224 -274 -522 -664 -668 -874 -16 -24 -48
-70 -71 -102 -650 -937 -1191 -1939 -1615 -2991 -62 -154 -91 -230 -201 -528
-30 -81 -207 -607 -213 -635 -2 -8 -17 -58 -33 -110 -16 -52 -48 -162 -71
-245 -23 -82 -45 -163 -51 -180 -7 -24 -27 -100 -56 -215 -2 -8 -7 -31 -12
-50 -5 -19 -26 -107 -46 -195 -20 -88 -41 -176 -46 -195 -13 -43 -106 -509
-115 -570 -3 -25 -11 -64 -16 -87 -5 -23 -16 -86 -24 -140 -8 -54 -22 -143
-30 -198 -9 -55 -18 -111 -20 -125 -8 -49 -35 -256 -40 -305 -3 -27 -7 -63
-10 -80 -3 -16 -7 -55 -10 -85 -3 -30 -8 -68 -10 -85 -2 -16 -6 -66 -10 -110
-4 -44 -8 -87 -10 -95 -2 -8 -7 -60 -11 -115 -4 -55 -8 -113 -9 -130 -1 -16
-6 -79 -10 -140 -3 -60 -8 -128 -10 -150 -12 -136 -20 -483 -20 -895 1 -465 7
-702 30 -1015 2 -38 7 -106 10 -150 3 -44 7 -98 10 -120 2 -22 7 -71 10 -110
3 -38 8 -90 11 -115 3 -25 7 -65 10 -90 4 -57 23 -224 30 -270 11 -80 23 -168
29 -219 4 -30 8 -61 10 -70 1 -9 8 -52 15 -96 9 -66 45 -286 66 -408 2 -15 11
-58 18 -95 8 -37 17 -84 20 -105 9 -55 64 -319 100 -482 9 -38 18 -79 20 -90
8 -40 117 -471 127 -500 5 -16 25 -88 45 -160 19 -71 39 -143 45 -160 5 -16
32 -104 59 -195 28 -91 85 -264 126 -385 41 -121 76 -227 78 -235 11 -43 235
-622 281 -725 8 -16 39 -90 70 -163 50 -119 97 -223 205 -457 110 -239 420
-840 518 -1005 11 -19 32 -56 46 -82 37 -67 259 -437 325 -540 31 -48 79 -123
106 -167 28 -44 53 -81 58 -81 4 0 7 -4 7 -9 0 -8 75 -124 143 -221 182 -261
372 -525 387 -540 3 -3 37 -48 77 -101 61 -83 312 -401 372 -471 267 -318 385
-451 579 -659 35 -38 73 -79 83 -91 42 -49 466 -473 606 -604 177 -168 158
-150 273 -254 52 -47 97 -87 100 -91 11 -12 366 -314 430 -366 19 -15 44 -36
55 -45 55 -48 310 -246 465 -363 1045 -785 2221 -1451 3390 -1922 102 -41 194
-78 205 -83 11 -4 47 -18 80 -30 33 -12 69 -26 80 -31 11 -5 38 -15 60 -23 22
-8 85 -31 140 -51 220 -80 694 -235 875 -286 408 -114 739 -199 945 -244 39
-9 77 -17 85 -19 19 -5 98 -18 105 -17 2 0 19 -5 37 -10 18 -6 47 -13 63 -15
17 -3 84 -16 150 -29 156 -31 279 -53 400 -71 17 -3 53 -9 80 -14 45 -9 279
-43 378 -55 69 -9 122 -16 147 -20 14 -2 57 -7 95 -11 39 -3 78 -8 87 -9 9 -2
48 -6 85 -10 37 -3 84 -8 103 -11 19 -2 64 -6 100 -9 127 -10 185 -15 220 -20
19 -3 89 -7 155 -10 66 -3 136 -8 155 -10 235 -26 1310 -26 1745 0 134 8 274
17 305 20 19 2 75 6 124 10 48 4 96 8 105 10 9 1 57 6 106 9 50 4 97 9 105 11
8 2 47 6 85 10 74 7 83 8 210 25 44 6 94 13 110 15 17 2 66 9 110 15 44 6 96
13 115 16 19 2 62 9 95 14 33 5 77 12 99 16 21 3 46 7 55 9 9 1 36 6 61 10 25
4 54 9 65 11 11 3 36 7 55 9 19 3 46 8 60 11 35 8 52 12 91 18 19 3 45 8 59
11 14 3 72 14 130 26 164 32 453 97 585 130 66 17 127 32 135 34 65 13 466
124 605 166 271 83 535 169 572 185 17 8 35 14 39 14 16 0 438 156 629 232
184 74 509 211 590 248 33 16 112 52 175 80 780 352 1713 895 2470 1438 204
147 613 457 660 502 9 8 34 29 55 45 90 69 493 411 525 445 3 3 46 41 95 85
333 295 796 760 1131 1134 27 30 56 62 64 71 8 8 82 94 164 190 82 96 158 186
170 200 112 130 523 662 626 810 8 12 33 47 56 78 22 32 57 81 78 111 53 75
283 421 340 511 27 41 57 87 67 102 10 15 19 29 19 32 0 2 32 54 70 115 39 62
70 116 70 120 0 5 3 11 8 13 4 2 17 21 30 43 24 43 140 244 157 273 129 219
445 836 560 1092 26 58 65 143 86 188 21 46 39 86 39 89 0 2 12 30 26 61 61
134 182 435 314 782 77 201 209 600 294 885 20 66 45 149 56 185 20 68 109
400 115 429 2 9 15 61 29 116 30 120 77 329 117 520 57 273 127 664 154 865 3
25 8 52 10 60 2 8 7 40 10 70 3 30 8 66 10 80 6 37 13 98 20 160 4 30 8 66 10
80 2 14 6 50 10 80 3 30 8 71 10 90 7 56 17 170 30 320 3 36 7 85 10 110 2 25
7 95 10 155 4 61 8 130 10 155 26 340 26 1497 0 1755 -2 22 -7 90 -10 150 -4
61 -8 126 -10 145 -2 19 -6 71 -10 115 -5 77 -9 120 -20 223 -3 26 -7 72 -10
102 -2 30 -7 71 -9 90 -3 19 -8 58 -11 85 -3 28 -8 64 -10 80 -3 17 -9 68 -15
115 -6 47 -13 101 -16 120 -2 19 -9 67 -15 105 -5 39 -18 124 -29 190 -11 66
-22 137 -26 159 -3 21 -8 48 -10 60 -2 11 -7 37 -10 56 -2 19 -7 46 -10 60 -2
14 -7 39 -10 55 -2 17 -7 37 -9 45 -2 8 -7 31 -10 50 -3 19 -15 80 -26 135
-12 55 -22 109 -25 120 -5 26 -31 142 -50 225 -9 36 -18 74 -20 85 -32 161
-173 687 -269 1000 -61 201 -211 646 -245 730 -5 11 -32 83 -60 160 -55 150
-205 524 -246 612 -13 30 -24 56 -24 58 0 3 -16 39 -35 81 -19 41 -35 77 -35
79 0 1 -22 49 -49 106 -26 57 -60 130 -74 161 -96 211 -394 791 -474 923 -7
11 -15 27 -19 35 -15 31 -129 228 -180 312 -30 48 -54 92 -54 98 0 5 -4 10 -9
10 -5 0 -11 8 -14 18 -4 9 -32 58 -64 109 -32 51 -76 121 -97 155 -74 118
-298 453 -400 596 -55 79 -105 151 -111 160 -5 10 -12 19 -15 22 -3 3 -30 39
-60 80 -30 41 -57 77 -60 80 -3 3 -32 41 -64 85 -65 88 -227 297 -236 305 -3
3 -21 25 -40 50 -19 25 -55 70 -80 100 -25 30 -80 96 -121 145 -40 50 -76 92
-79 95 -3 3 -34 39 -70 80 -64 75 -178 205 -215 245 -11 11 -42 45 -69 75
-306 340 -928 951 -1170 1150 -10 8 -26 22 -35 31 -27 26 -231 201 -321 274
-47 38 -87 72 -90 75 -12 13 -345 274 -455 357 -218 163 -298 221 -520 376
-105 73 -483 321 -590 387 -66 40 -136 83 -155 96 -97 62 -438 258 -615 354
-581 313 -1077 547 -1620 762 -82 32 -172 68 -200 80 -27 11 -61 24 -75 28
-14 5 -56 20 -95 35 -323 122 -1088 365 -1335 424 -19 5 -89 23 -155 40 -66
17 -129 33 -140 35 -11 3 -67 16 -125 30 -58 15 -121 29 -140 32 -19 3 -38 8
-41 10 -3 2 -19 6 -35 8 -16 3 -60 13 -99 21 -86 19 -349 72 -396 80 -19 3
-83 15 -144 25 -102 18 -127 22 -210 36 -16 2 -55 9 -85 14 -30 5 -75 12 -100
15 -25 3 -56 8 -70 10 -14 2 -45 7 -70 10 -25 3 -56 8 -70 10 -14 2 -47 7 -75
10 -27 3 -84 10 -125 15 -41 5 -100 12 -130 15 -30 3 -71 8 -90 10 -19 2 -64
7 -100 10 -65 5 -112 10 -205 20 -27 2 -90 7 -140 11 -49 3 -110 7 -135 9 -25
2 -101 7 -170 10 -69 4 -154 9 -190 11 -78 5 -1127 13 -1132 9z m1038 -3038
c122 -7 295 -18 334 -22 19 -2 76 -6 125 -10 50 -3 97 -8 105 -10 8 -2 51 -6
95 -10 77 -6 222 -21 275 -30 25 -4 50 -7 160 -21 30 -3 62 -8 70 -9 8 -2 35
-6 60 -9 44 -6 417 -70 475 -81 17 -3 77 -15 135 -26 58 -12 193 -41 300 -66
107 -25 211 -49 230 -53 71 -16 270 -70 455 -124 913 -266 1774 -632 2610
-1109 116 -66 234 -135 263 -153 29 -19 57 -34 62 -34 6 0 10 -4 10 -8 0 -5
11 -14 25 -20 37 -17 540 -348 625 -411 14 -11 95 -70 180 -132 85 -61 157
-115 160 -118 3 -3 32 -26 65 -50 61 -45 306 -240 315 -251 3 -3 32 -28 65
-55 70 -58 282 -242 306 -264 9 -9 56 -52 105 -96 212 -192 567 -548 768 -770
49 -55 92 -102 95 -105 4 -3 35 -39 71 -80 36 -41 70 -81 77 -88 7 -7 29 -34
50 -60 21 -26 40 -49 43 -52 3 -3 28 -32 55 -65 28 -33 52 -62 56 -65 3 -3 18
-23 35 -45 28 -38 42 -56 81 -101 20 -24 56 -71 87 -113 12 -16 61 -81 109
-145 172 -227 416 -585 572 -836 32 -52 68 -111 81 -130 62 -97 203 -343 314
-550 72 -133 300 -585 300 -594 0 -3 17 -42 39 -88 72 -155 148 -330 211 -488
23 -58 46 -114 51 -125 69 -162 246 -674 325 -940 34 -112 112 -392 119 -425
2 -8 11 -42 20 -74 8 -33 17 -67 19 -75 1 -9 8 -34 14 -56 6 -22 13 -51 16
-65 3 -14 19 -88 36 -165 18 -77 34 -151 36 -165 4 -22 22 -113 54 -275 5 -27
12 -67 16 -89 3 -21 8 -48 10 -60 9 -46 48 -302 59 -391 4 -27 8 -61 11 -75 2
-14 6 -50 9 -80 4 -30 8 -66 10 -80 7 -48 14 -105 20 -165 3 -33 7 -82 10
-110 3 -27 7 -72 9 -100 3 -27 8 -93 11 -145 4 -52 8 -113 10 -135 25 -300 25
-1323 0 -1539 -2 -17 -6 -76 -10 -131 -8 -116 -10 -145 -19 -240 -4 -38 -9
-95 -12 -125 -3 -30 -7 -66 -9 -80 -2 -14 -6 -54 -10 -90 -3 -36 -8 -72 -10
-80 -2 -8 -7 -40 -10 -70 -3 -30 -10 -82 -15 -115 -5 -33 -12 -78 -15 -100
-11 -87 -15 -111 -20 -135 -2 -14 -7 -41 -10 -60 -19 -122 -84 -462 -110 -580
-195 -879 -447 -1641 -802 -2425 -82 -181 -303 -629 -362 -735 -11 -19 -41
-73 -67 -120 -37 -69 -186 -327 -224 -390 -137 -225 -291 -463 -434 -670 -78
-113 -295 -410 -306 -420 -3 -3 -19 -23 -35 -45 -56 -75 -260 -330 -353 -440
-124 -146 -228 -264 -302 -344 -153 -165 -194 -208 -280 -296 -532 -542 -1053
-989 -1655 -1420 -173 -124 -515 -352 -661 -440 -75 -45 -250 -149 -269 -160
-11 -6 -39 -23 -62 -38 -24 -15 -46 -27 -50 -27 -5 0 -24 -11 -43 -23 -19 -13
-84 -50 -145 -82 -60 -32 -114 -61 -120 -65 -5 -5 -111 -58 -235 -119 -124
-62 -232 -116 -242 -121 -9 -5 -88 -41 -175 -81 -219 -99 -227 -102 -328 -144
-49 -20 -104 -43 -122 -51 -230 -103 -1024 -375 -1313 -449 -8 -2 -58 -15
-110 -30 -90 -24 -387 -98 -440 -109 -14 -3 -56 -13 -95 -22 -38 -8 -79 -17
-90 -20 -127 -26 -163 -33 -200 -39 -16 -3 -41 -8 -55 -10 -224 -45 -632 -108
-840 -130 -30 -3 -71 -8 -90 -10 -19 -2 -62 -7 -95 -10 -33 -3 -82 -8 -110
-10 -57 -6 -112 -11 -235 -20 -47 -4 -105 -8 -130 -10 -320 -25 -1229 -26
-1540 -1 -25 2 -88 7 -140 11 -52 3 -111 8 -130 10 -19 2 -71 6 -115 10 -44 3
-91 8 -105 10 -14 3 -50 7 -80 9 -30 3 -71 7 -90 10 -19 3 -57 8 -85 11 -62 7
-132 16 -165 21 -14 2 -43 6 -65 9 -22 3 -65 10 -95 15 -30 5 -73 12 -95 15
-127 18 -507 89 -645 120 -196 44 -291 66 -318 74 -18 5 -35 10 -37 10 -56 5
-632 171 -865 248 -171 57 -512 177 -545 193 -11 5 -60 25 -110 44 -459 175
-1077 472 -1553 745 -119 68 -235 137 -307 181 -38 24 -79 48 -90 55 -68 38
-430 279 -640 426 -286 201 -854 657 -1051 844 -6 5 -51 46 -100 90 -154 139
-508 488 -639 630 -20 22 -55 60 -78 85 -322 346 -733 852 -975 1200 -36 52
-69 97 -72 100 -3 3 -9 12 -15 21 -5 9 -64 97 -129 195 -145 218 -214 326
-256 399 -13 22 -38 63 -57 92 -18 28 -33 54 -33 56 0 3 -17 34 -39 68 -122
202 -404 737 -501 954 -12 28 -38 84 -57 125 -43 92 -144 329 -185 430 -16 41
-36 89 -43 105 -42 90 -214 575 -294 827 -80 253 -217 751 -236 860 -3 17 -8
34 -10 38 -2 4 -7 22 -10 41 -3 19 -13 63 -21 99 -62 270 -159 830 -188 1095
-4 28 -8 61 -11 75 -2 14 -7 57 -10 95 -3 39 -8 86 -10 105 -2 19 -7 62 -10
95 -3 33 -8 80 -10 105 -10 101 -19 252 -31 480 -16 291 -9 1080 11 1330 2 25
6 90 10 145 3 55 8 111 10 125 2 14 6 63 10 110 4 47 8 96 10 110 2 14 6 54
10 90 4 36 8 76 10 90 2 14 7 50 10 80 3 30 8 66 10 80 2 14 9 63 15 110 10
74 54 358 65 415 2 11 9 47 15 80 81 433 169 802 280 1185 28 96 53 180 54
185 2 6 6 17 9 25 3 8 32 98 65 200 58 179 82 248 137 395 14 39 33 90 42 115
27 79 161 406 235 573 94 215 276 597 289 607 3 3 9 15 13 28 4 12 27 57 50
100 23 42 66 122 96 177 195 367 548 931 788 1258 28 40 60 83 70 96 16 23
155 209 205 275 26 35 151 193 175 221 9 11 39 47 67 80 63 76 275 324 295
345 8 9 56 61 105 115 158 174 454 474 625 635 109 103 246 228 294 269 27 23
54 48 61 54 7 7 32 28 56 49 24 20 55 46 69 58 14 12 45 39 70 59 25 20 52 42
60 50 8 8 71 59 140 114 69 54 134 106 145 116 182 149 932 671 965 671 5 0
10 3 10 8 0 4 9 12 19 17 11 6 107 62 213 126 106 64 216 129 243 144 260 144
371 203 567 301 126 63 230 114 232 114 4 0 233 107 258 120 10 6 25 10 33 10
8 0 15 5 15 10 0 6 6 10 14 10 8 0 45 14 83 31 37 17 113 49 168 70 55 22 109
44 120 49 74 35 452 173 685 250 110 37 566 174 615 186 6 1 55 14 110 29 55
14 111 29 125 31 14 3 61 15 105 26 44 11 130 31 190 45 61 13 119 25 130 28
43 10 331 66 355 70 14 2 64 10 110 19 79 14 297 47 400 61 25 3 56 8 70 10
36 6 97 14 165 20 33 3 76 8 96 11 45 6 94 11 189 19 41 3 86 8 100 10 14 2
72 7 130 10 58 3 125 8 150 10 25 2 112 7 195 10 82 4 151 8 153 10 4 4 905
-3 998 -8z"/>
<path d="M12019 23485 c-2 -1 -20 -6 -39 -9 -140 -22 -310 -114 -406 -217 -94
-103 -168 -248 -195 -383 -27 -143 -7 -321 54 -458 153 -345 552 -522 920
-408 240 74 436 274 498 510 16 60 19 73 25 135 9 73 9 64 0 155 -31 329 -265
591 -595 666 -30 7 -257 15 -262 9z"/>
<path d="M18075 23484 c-138 -29 -227 -64 -319 -125 -207 -140 -326 -371 -324
-631 2 -223 81 -406 238 -552 203 -188 498 -249 768 -160 165 55 321 186 409
344 27 48 84 191 82 205 0 3 3 24 7 48 13 77 6 215 -17 305 -43 174 -135 315
-274 419 -132 100 -259 143 -430 148 -66 1 -129 1 -140 -1z"/>
<path d="M11900 19685 c-433 -70 -795 -300 -1037 -661 -104 -153 -187 -350
-222 -525 -6 -29 -13 -67 -17 -84 -13 -62 -12 -369 1 -450 20 -119 23 -132 56
-240 97 -314 328 -618 619 -811 42 -28 241 -129 285 -145 95 -34 176 -58 225
-65 19 -3 55 -10 80 -16 60 -13 340 -18 410 -7 30 5 73 11 95 14 104 15 279
73 390 127 191 95 378 242 510 402 142 172 262 419 309 636 49 230 42 509 -20
730 -126 455 -459 825 -900 1003 -73 29 -170 61 -181 59 -2 -1 -17 4 -35 9
-33 9 -44 12 -148 28 -78 13 -332 10 -420 -4z"/>
<path d="M18029 19696 c-2 -2 -28 -7 -58 -10 -86 -10 -258 -54 -318 -82 -17
-8 -34 -14 -37 -14 -15 0 -168 -78 -231 -118 -200 -127 -404 -335 -501 -511
-60 -109 -75 -139 -99 -200 -15 -36 -36 -93 -46 -126 -17 -52 -25 -89 -54
-230 -11 -52 -14 -327 -4 -395 16 -113 19 -134 30 -175 6 -22 12 -47 14 -55
28 -139 175 -419 295 -561 237 -280 521 -446 898 -525 130 -27 418 -25 559 5
380 79 706 286 924 584 75 104 72 99 88 127 97 168 164 359 199 565 9 54 9
359 0 415 -17 100 -20 117 -35 175 -124 492 -503 895 -994 1059 -113 38 -121
40 -254 60 -77 12 -366 21 -376 12z"/>
<path d="M7537 18944 c-1 -1 -27 -5 -57 -8 -240 -25 -466 -182 -574 -400 -54
-109 -74 -182 -83 -297 -13 -192 39 -363 157 -520 223 -297 659 -376 993 -181
116 67 238 205 296 335 74 163 84 372 28 550 -97 305 -364 503 -700 520 -31 2
-58 3 -60 1z"/>
<path d="M22648 18939 c-245 -26 -462 -170 -581 -389 -105 -193 -119 -434 -37
-654 31 -81 109 -193 185 -264 63 -59 190 -142 217 -142 8 0 18 -4 24 -9 24
-22 146 -44 254 -47 223 -6 405 63 553 210 148 148 218 310 223 521 12 469
-370 822 -838 774z"/>
<path d="M11967 13634 c-2 -2 -34 -8 -117 -20 -65 -10 -185 -43 -261 -73 -347
-135 -623 -376 -801 -701 -65 -120 -135 -318 -152 -430 -3 -19 -9 -56 -14 -81
-5 -26 -9 -116 -9 -200 -1 -323 79 -586 259 -856 69 -102 206 -252 303 -330
175 -141 439 -266 640 -302 33 -6 71 -14 85 -17 54 -13 356 -12 440 1 134 21
143 23 255 60 549 180 943 649 1028 1225 14 91 15 342 3 420 -29 184 -67 303
-147 465 -147 300 -385 538 -684 685 -149 73 -279 116 -405 135 -25 4 -70 11
-100 15 -47 7 -316 10 -323 4z"/>
<path d="M18028 13634 c-2 -1 -23 -5 -48 -9 -118 -17 -196 -36 -310 -77 -250
-90 -471 -246 -657 -463 -64 -76 -174 -256 -218 -360 -43 -101 -51 -126 -79
-240 -34 -139 -37 -161 -41 -325 -4 -157 10 -282 45 -415 12 -44 23 -87 25
-95 14 -60 109 -256 163 -340 227 -351 573 -587 982 -671 94 -19 146 -24 285
-24 177 0 208 3 338 30 438 91 844 414 1041 828 104 221 145 414 141 672 -2
94 -5 181 -8 195 -2 14 -10 54 -16 89 -26 139 -144 432 -197 492 -8 8 -14 19
-14 23 0 19 -124 170 -210 256 -231 230 -498 363 -855 427 -31 5 -362 12 -367
7z"/>
<path d="M7480 12877 c-3 -3 -26 -8 -51 -11 -79 -11 -238 -75 -277 -113 -7 -7
-17 -13 -22 -13 -16 0 -147 -137 -185 -195 -48 -73 -90 -174 -109 -263 -14
-65 -15 -259 -3 -311 60 -239 182 -405 377 -509 266 -143 568 -125 814 48 290
204 392 604 239 939 -79 173 -215 300 -408 382 -65 28 -170 47 -265 48 -58 1
-108 0 -110 -2z"/>
<path d="M22620 12876 c-3 -2 -21 -7 -40 -10 -136 -23 -300 -112 -397 -217
-182 -196 -247 -455 -183 -716 118 -473 647 -705 1089 -477 258 133 415 411
398 703 -21 358 -244 623 -595 706 -51 12 -263 21 -272 11z"/>
<path d="M12030 8332 c-70 -9 -193 -49 -260 -85 -236 -125 -375 -335 -398
-602 -13 -144 10 -273 69 -395 106 -221 285 -360 534 -417 11 -2 61 -7 111
-10 213 -12 419 64 567 210 74 74 112 127 155 218 54 113 67 178 67 334 -1
130 -3 146 -32 230 -40 118 -92 204 -167 284 -90 94 -198 162 -319 201 -87 28
-243 43 -327 32z"/>
<path d="M18085 8328 c-246 -32 -455 -178 -572 -399 -32 -59 -34 -66 -62 -170
-23 -85 -25 -259 -5 -349 39 -167 133 -317 268 -429 65 -53 203 -121 278 -137
102 -21 134 -25 213 -22 320 9 585 200 694 500 72 198 52 444 -51 628 -150
269 -451 418 -763 378z"/>
</g>
</svg>
